<svg width="20" height="20" viewBox="0 0 20 20" fill="none" xmlns="http://www.w3.org/2000/svg">
<path d="M18.2667 13.9583C17.9917 16.175 16.175 17.9917 13.9584 18.2667C12.6167 18.4333 11.3667 18.0667 10.3917 17.35C9.83338 16.9417 9.96671 16.075 10.6334 15.875C13.1417 15.1167 15.1167 13.1333 15.8834 10.625C16.0834 9.96667 16.95 9.83333 17.3584 10.3833C18.0667 11.3667 18.4334 12.6167 18.2667 13.9583Z" fill="#D21C3C"/>
<path d="M8.32508 1.66666C4.65008 1.66666 1.66675 4.65 1.66675 8.325C1.66675 12 4.65008 14.9833 8.32508 14.9833C12.0001 14.9833 14.9834 12 14.9834 8.325C14.9751 4.65 12.0001 1.66666 8.32508 1.66666ZM7.54175 7.39166L9.55008 8.09166C10.2751 8.35 10.6251 8.85833 10.6251 9.64166C10.6251 10.5417 9.90841 11.2833 9.03342 11.2833H8.95842V11.325C8.95842 11.6667 8.67508 11.95 8.33342 11.95C7.99175 11.95 7.70842 11.6667 7.70842 11.325V11.275C6.78341 11.2333 6.04175 10.4583 6.04175 9.49166C6.04175 9.15 6.32508 8.86666 6.66675 8.86666C7.00841 8.86666 7.29175 9.15 7.29175 9.49166C7.29175 9.79167 7.50841 10.0333 7.77508 10.0333H9.02508C9.21675 10.0333 9.36675 9.85833 9.36675 9.64166C9.36675 9.35 9.31675 9.33333 9.12508 9.26666L7.11675 8.56666C6.40008 8.31666 6.04175 7.80833 6.04175 7.01666C6.04175 6.11666 6.75841 5.375 7.63341 5.375H7.70842V5.34166C7.70842 5 7.99175 4.71666 8.33342 4.71666C8.67508 4.71666 8.95842 5 8.95842 5.34166V5.39166C9.88342 5.43333 10.6251 6.20833 10.6251 7.175C10.6251 7.51666 10.3417 7.8 10.0001 7.8C9.65842 7.8 9.37508 7.51666 9.37508 7.175C9.37508 6.875 9.15842 6.63333 8.89175 6.63333H7.64175C7.45008 6.63333 7.30008 6.80833 7.30008 7.025C7.29175 7.30833 7.34175 7.325 7.54175 7.39166Z" fill="#D21C3C"/>
</svg>
