<svg width="20" height="20" viewBox="0 0 20 20" fill="none" xmlns="http://www.w3.org/2000/svg">
<g clip-path="url(#clip0_574_545)">
<path d="M10 13.3333C11.3807 13.3333 12.5 12.214 12.5 10.8333C12.5 9.45262 11.3807 8.33333 10 8.33333C8.61929 8.33333 7.5 9.45262 7.5 10.8333C7.5 12.214 8.61929 13.3333 10 13.3333Z" stroke="white" stroke-width="1.25" stroke-linecap="round" stroke-linejoin="round"/>
<path d="M4.16667 5.83333H5.83333C6.27536 5.83333 6.69928 5.65773 7.01184 5.34517C7.3244 5.03261 7.5 4.60869 7.5 4.16666C7.5 3.94565 7.5878 3.73369 7.74408 3.57741C7.90036 3.42113 8.11232 3.33333 8.33333 3.33333H10M17.5 9.16666V15C17.5 15.442 17.3244 15.8659 17.0118 16.1785C16.6993 16.4911 16.2754 16.6667 15.8333 16.6667H4.16667C3.72464 16.6667 3.30072 16.4911 2.98816 16.1785C2.67559 15.8659 2.5 15.442 2.5 15V7.49999C2.5 7.05797 2.67559 6.63404 2.98816 6.32148C3.30072 6.00892 3.72464 5.83333 4.16667 5.83333" stroke="white" stroke-width="1.25" stroke-linecap="round" stroke-linejoin="round"/>
<path d="M12.5 5H17.5" stroke="white" stroke-width="1.25" stroke-linecap="round" stroke-linejoin="round"/>
<path d="M15 2.5V7.5" stroke="white" stroke-width="1.25" stroke-linecap="round" stroke-linejoin="round"/>
</g>
<defs>
<clipPath id="clip0_574_545">
<rect width="20" height="20" fill="white"/>
</clipPath>
</defs>
</svg>
