<svg width="24" height="24" viewBox="0 0 24 24" fill="none" xmlns="http://www.w3.org/2000/svg">
<g clip-path="url(#clip0_142_170)">
<path d="M11.9999 0C11.7771 0 11.5635 0.0884997 11.4059 0.24603C11.2484 0.403561 11.1599 0.617218 11.1599 0.84V20.04C11.1599 20.2628 11.2484 20.4764 11.4059 20.634C11.5635 20.7915 11.7771 20.88 11.9999 20.88C12.2227 20.88 12.4364 20.7915 12.5939 20.634C12.7514 20.4764 12.8399 20.2628 12.8399 20.04V11.28H23.1599C23.3827 11.28 23.5964 11.1915 23.7539 11.034C23.9114 10.8764 23.9999 10.6628 23.9999 10.44V0.84C23.9999 0.617218 23.9114 0.403561 23.7539 0.24603C23.5964 0.0884997 23.3827 0 23.1599 0H12.1199C12.0996 6.15957e-05 12.0792 0.000862124 12.059 0.0024C12.0393 0.000907851 12.0196 0.000107356 11.9999 0ZM15.3119 1.68H17.6639V3.4632H20.0159V1.68H22.3199V3.4632H20.0159V5.81496H22.3199V8.16696H20.0159V9.6H17.6639V8.1672H15.3119V9.6H12.9599V8.1672H15.3119V5.81496H12.9599V3.46296H15.3119V1.68ZM15.3119 3.46296V5.81496H17.6639V3.4632L15.3119 3.46296ZM17.6639 5.81496V8.1672L20.0159 8.16696V5.81496H17.6639Z" fill="white"/>
<path d="M9.12101 18.4301C6.57845 18.7896 4.80005 19.6493 4.80005 20.9143C4.80005 22.6183 7.77149 24 12 24C16.2286 24 19.2 22.6186 19.2 20.9143C19.2 19.649 17.4216 18.7896 14.8793 18.4303L14.527 19.0301C16.4434 19.2958 17.76 19.8547 17.76 20.503C17.76 21.4118 15.1812 22.1486 12 22.1486C8.81885 22.1486 6.24005 21.4118 6.24005 20.503C6.23981 19.8569 7.54805 19.2986 9.47021 19.0318C9.35405 18.8311 9.23741 18.631 9.12101 18.4301Z" fill="white"/>
</g>
<defs>
<clipPath id="clip0_142_170">
<rect width="24" height="24" fill="white"/>
</clipPath>
</defs>
</svg>
