<svg width="25" height="24" viewBox="0 0 25 24" fill="none" xmlns="http://www.w3.org/2000/svg">
<path fill-rule="evenodd" clip-rule="evenodd" d="M8.56567 6.02548C6.71318 7.28659 5.5 9.41147 5.5 11.8165C5.5 15.6825 8.63401 18.8165 12.5 18.8165C14.9051 18.8165 17.0299 17.6034 18.2911 15.7509C13.1817 15.1923 9.12421 11.1348 8.56567 6.02548ZM19.5 13.8166C20.366 13.8166 21.1118 14.5798 20.7691 15.3751C19.3898 18.5759 16.2066 20.8165 12.5 20.8165C7.52944 20.8165 3.5 16.7871 3.5 11.8165C3.5 8.10997 5.74067 4.92673 8.9414 3.54746C9.73674 3.20472 10.5 3.9505 10.5 4.81655C10.5 9.78712 14.5294 13.8166 19.5 13.8166Z" fill="#535763"/>
</svg>
