<svg width="66" height="66" viewBox="0 0 66 66" fill="none" xmlns="http://www.w3.org/2000/svg">
<path d="M33.6875 5.5C26.4825 5.5 20.625 11.3637 20.625 18.5763C20.625 25.6512 26.1525 31.3772 33.3575 31.625C33.5775 31.5975 33.7975 31.5975 33.9625 31.625C34.0175 31.625 34.045 31.625 34.1 31.625C34.1275 31.625 34.1275 31.625 34.155 31.625C41.195 31.3772 46.7225 25.6512 46.75 18.5763C46.75 11.3637 40.8925 5.5 33.6875 5.5Z" fill="#9DA4B1"/>
<path d="M46.8906 39.4846C39.2617 34.5051 26.8203 34.5051 19.1367 39.4846C15.6641 41.7601 13.75 44.8388 13.75 48.1317C13.75 51.4246 15.6641 54.4765 19.1094 56.7253C22.9375 59.2418 27.9687 60.5 33 60.5C38.0312 60.5 43.0625 59.2418 46.8906 56.7253C50.3359 54.4497 52.25 51.3978 52.25 48.0782C52.2227 44.7853 50.3359 41.7334 46.8906 39.4846Z" fill="#9DA4B1"/>
</svg>
