<svg width="24" height="24" viewBox="0 0 24 24" fill="none" xmlns="http://www.w3.org/2000/svg">
<path d="M12 22C17.5228 22 22 17.5228 22 12C22 6.47715 17.5228 2 12 2C6.47715 2 2 6.47715 2 12C2 17.5228 6.47715 22 12 22Z" stroke="#151513" stroke-width="2" stroke-linecap="round" stroke-linejoin="round"/>
<path d="M10.4034 14.375V14.2273C10.4072 13.5417 10.4716 12.9962 10.5966 12.5909C10.7254 12.1856 10.9072 11.8598 11.142 11.6136C11.3769 11.3636 11.6629 11.1345 12 10.9261C12.2311 10.7822 12.4375 10.625 12.6193 10.4545C12.8049 10.2803 12.9508 10.0871 13.0568 9.875C13.1629 9.65909 13.2159 9.41856 13.2159 9.15341C13.2159 8.85417 13.1458 8.5947 13.0057 8.375C12.8655 8.1553 12.6761 7.98485 12.4375 7.86364C12.2027 7.74242 11.9394 7.68182 11.6477 7.68182C11.3788 7.68182 11.1231 7.74053 10.8807 7.85795C10.642 7.97159 10.4432 8.14583 10.2841 8.38068C10.1288 8.61174 10.0417 8.9053 10.0227 9.26136H8C8.01894 8.54167 8.19318 7.93939 8.52273 7.45455C8.85606 6.9697 9.29545 6.60606 9.84091 6.36364C10.3902 6.12121 10.9962 6 11.6591 6C12.3826 6 13.0189 6.12689 13.5682 6.38068C14.1212 6.63447 14.5511 6.99621 14.858 7.46591C15.1686 7.93182 15.3239 8.48485 15.3239 9.125C15.3239 9.55682 15.2538 9.94318 15.1136 10.2841C14.9773 10.625 14.7822 10.928 14.5284 11.1932C14.2746 11.4583 13.9735 11.6951 13.625 11.9034C13.3182 12.0928 13.0663 12.2898 12.8693 12.4943C12.6761 12.6989 12.5322 12.9394 12.4375 13.2159C12.3466 13.4886 12.2992 13.8258 12.2955 14.2273V14.375H10.4034ZM11.392 17.9205C11.0511 17.9205 10.7576 17.7992 10.5114 17.5568C10.2652 17.3144 10.142 17.0189 10.142 16.6705C10.142 16.3295 10.2652 16.0379 10.5114 15.7955C10.7576 15.553 11.0511 15.4318 11.392 15.4318C11.7292 15.4318 12.0208 15.553 12.267 15.7955C12.517 16.0379 12.642 16.3295 12.642 16.6705C12.642 16.9015 12.5833 17.1117 12.4659 17.3011C12.3523 17.4905 12.2008 17.642 12.0114 17.7557C11.8258 17.8655 11.6193 17.9205 11.392 17.9205Z" fill="black"/>
</svg>
